<?xml version="1.0" encoding="utf-8"?>
<svg viewBox="0 5.385 284.002 39.23" width="284.002" height="39.23" xmlns="http://www.w3.org/2000/svg">
  <path d="M 46.054 35.365 C 45.714 35.365 45.427 35.248 45.194 35.015 C 44.961 34.782 44.844 34.498 44.844 34.165 L 44.844 14.705 C 44.844 14.345 44.957 14.055 45.184 13.835 C 45.411 13.608 45.701 13.495 46.054 13.495 L 59.014 13.495 C 59.367 13.495 59.657 13.602 59.884 13.815 C 60.111 14.035 60.224 14.322 60.224 14.675 C 60.224 14.988 60.111 15.255 59.884 15.475 C 59.657 15.688 59.367 15.795 59.014 15.795 L 47.254 15.795 L 47.254 23.215 L 55.794 23.215 C 56.147 23.215 56.437 23.325 56.664 23.545 C 56.891 23.772 57.004 24.045 57.004 24.365 C 57.004 24.698 56.891 24.978 56.664 25.205 C 56.437 25.425 56.147 25.535 55.794 25.535 L 47.254 25.535 L 47.254 34.165 C 47.254 34.498 47.144 34.782 46.924 35.015 C 46.697 35.248 46.407 35.365 46.054 35.365 ZM 66.651 25.875 L 65.361 25.875 C 65.401 24.735 65.698 23.712 66.251 22.805 C 66.798 21.898 67.521 21.185 68.421 20.665 C 69.315 20.145 70.311 19.885 71.411 19.885 C 72.365 19.885 73.088 20.025 73.581 20.305 C 74.075 20.585 74.258 20.965 74.131 21.445 C 74.071 21.725 73.955 21.918 73.781 22.025 C 73.601 22.125 73.395 22.175 73.161 22.175 C 72.928 22.175 72.661 22.165 72.361 22.145 C 71.281 21.998 70.311 22.062 69.451 22.335 C 68.591 22.602 67.911 23.045 67.411 23.665 C 66.905 24.278 66.651 25.015 66.651 25.875 Z M 65.481 35.365 C 65.108 35.365 64.818 35.262 64.611 35.055 C 64.405 34.848 64.301 34.558 64.301 34.185 L 64.301 21.225 C 64.301 20.852 64.405 20.562 64.611 20.355 C 64.818 20.148 65.108 20.045 65.481 20.045 C 65.855 20.045 66.141 20.148 66.341 20.355 C 66.548 20.562 66.651 20.852 66.651 21.225 L 66.651 34.185 C 66.651 34.558 66.548 34.848 66.341 35.055 C 66.141 35.262 65.855 35.365 65.481 35.365 ZM 83.725 35.505 C 82.212 35.505 80.872 35.168 79.705 34.495 C 78.539 33.822 77.622 32.898 76.955 31.725 C 76.282 30.552 75.945 29.218 75.945 27.725 C 75.945 26.212 76.282 24.865 76.955 23.685 C 77.622 22.512 78.539 21.588 79.705 20.915 C 80.872 20.242 82.212 19.905 83.725 19.905 C 85.219 19.905 86.545 20.242 87.705 20.915 C 88.859 21.588 89.772 22.512 90.445 23.685 C 91.119 24.865 91.465 26.212 91.485 27.725 C 91.485 29.218 91.149 30.552 90.475 31.725 C 89.802 32.898 88.882 33.822 87.715 34.495 C 86.549 35.168 85.219 35.505 83.725 35.505 Z M 83.725 33.345 C 84.772 33.345 85.705 33.105 86.525 32.625 C 87.345 32.138 87.985 31.468 88.445 30.615 C 88.905 29.768 89.135 28.805 89.135 27.725 C 89.135 26.638 88.905 25.665 88.445 24.805 C 87.985 23.952 87.345 23.282 86.525 22.795 C 85.705 22.308 84.772 22.065 83.725 22.065 C 82.679 22.065 81.745 22.308 80.925 22.795 C 80.105 23.282 79.459 23.952 78.985 24.805 C 78.505 25.665 78.265 26.638 78.265 27.725 C 78.265 28.805 78.505 29.768 78.985 30.615 C 79.459 31.468 80.105 32.138 80.925 32.625 C 81.745 33.105 82.679 33.345 83.725 33.345 ZM 109.26 35.365 C 108.9 35.365 108.61 35.252 108.39 35.025 C 108.164 34.805 108.05 34.525 108.05 34.185 L 108.05 27.045 C 108.05 25.912 107.837 24.985 107.41 24.265 C 106.977 23.545 106.404 23.008 105.69 22.655 C 104.97 22.302 104.144 22.125 103.21 22.125 C 102.35 22.125 101.567 22.292 100.86 22.625 C 100.147 22.958 99.587 23.422 99.18 24.015 C 98.767 24.602 98.56 25.278 98.56 26.045 L 96.96 26.045 C 96.98 24.865 97.284 23.815 97.87 22.895 C 98.464 21.968 99.254 21.235 100.24 20.695 C 101.227 20.155 102.327 19.885 103.54 19.885 C 104.867 19.885 106.05 20.158 107.09 20.705 C 108.124 21.258 108.94 22.065 109.54 23.125 C 110.134 24.192 110.43 25.498 110.43 27.045 L 110.43 34.185 C 110.43 34.525 110.32 34.805 110.1 35.025 C 109.874 35.252 109.594 35.365 109.26 35.365 Z M 97.38 35.365 C 97.027 35.365 96.74 35.258 96.52 35.045 C 96.294 34.832 96.18 34.545 96.18 34.185 L 96.18 21.255 C 96.18 20.882 96.294 20.588 96.52 20.375 C 96.74 20.155 97.027 20.045 97.38 20.045 C 97.74 20.045 98.027 20.155 98.24 20.375 C 98.454 20.588 98.56 20.882 98.56 21.255 L 98.56 34.185 C 98.56 34.545 98.454 34.832 98.24 35.045 C 98.027 35.258 97.74 35.365 97.38 35.365 ZM 122.099 35.365 L 121.539 35.365 C 120.573 35.365 119.706 35.132 118.939 34.665 C 118.173 34.198 117.569 33.555 117.129 32.735 C 116.689 31.915 116.469 30.992 116.469 29.965 L 116.469 16.385 C 116.469 16.025 116.579 15.735 116.799 15.515 C 117.013 15.288 117.296 15.175 117.649 15.175 C 117.983 15.175 118.263 15.288 118.489 15.515 C 118.716 15.735 118.829 16.025 118.829 16.385 L 118.829 29.965 C 118.829 30.838 119.086 31.562 119.599 32.135 C 120.113 32.702 120.759 32.985 121.539 32.985 L 122.349 32.985 C 122.669 32.985 122.933 33.098 123.139 33.325 C 123.346 33.545 123.449 33.832 123.449 34.185 C 123.449 34.545 123.323 34.832 123.069 35.045 C 122.816 35.258 122.493 35.365 122.099 35.365 Z M 121.739 22.655 L 114.819 22.655 C 114.506 22.655 114.246 22.562 114.039 22.375 C 113.833 22.188 113.729 21.945 113.729 21.645 C 113.729 21.345 113.833 21.098 114.039 20.905 C 114.246 20.705 114.506 20.605 114.819 20.605 L 121.739 20.605 C 122.053 20.605 122.313 20.705 122.519 20.905 C 122.726 21.098 122.829 21.345 122.829 21.645 C 122.829 21.945 122.726 22.188 122.519 22.375 C 122.313 22.562 122.053 22.655 121.739 22.655 ZM 134.474 35.505 C 132.94 35.505 131.587 35.175 130.414 34.515 C 129.234 33.848 128.31 32.928 127.644 31.755 C 126.97 30.575 126.634 29.232 126.634 27.725 C 126.634 26.192 126.95 24.842 127.584 23.675 C 128.217 22.508 129.09 21.588 130.204 20.915 C 131.31 20.242 132.594 19.905 134.054 19.905 C 135.487 19.905 136.727 20.228 137.774 20.875 C 138.82 21.522 139.627 22.412 140.194 23.545 C 140.767 24.685 141.054 25.985 141.054 27.445 C 141.054 27.758 140.95 28.015 140.744 28.215 C 140.537 28.408 140.277 28.505 139.964 28.505 L 128.254 28.505 L 128.254 26.575 L 140.074 26.575 L 138.894 27.415 C 138.894 26.388 138.697 25.465 138.304 24.645 C 137.917 23.818 137.364 23.172 136.644 22.705 C 135.924 22.238 135.06 22.005 134.054 22.005 C 132.987 22.005 132.064 22.255 131.284 22.755 C 130.497 23.248 129.89 23.925 129.464 24.785 C 129.03 25.638 128.814 26.618 128.814 27.725 C 128.814 28.825 129.057 29.798 129.544 30.645 C 130.03 31.498 130.697 32.172 131.544 32.665 C 132.397 33.158 133.374 33.405 134.474 33.405 C 135.107 33.405 135.754 33.292 136.414 33.065 C 137.08 32.845 137.61 32.565 138.004 32.225 C 138.224 32.038 138.48 31.942 138.774 31.935 C 139.06 31.928 139.307 32.008 139.514 32.175 C 139.774 32.415 139.907 32.682 139.914 32.975 C 139.927 33.262 139.81 33.508 139.564 33.715 C 138.93 34.235 138.144 34.665 137.204 35.005 C 136.257 35.338 135.347 35.505 134.474 35.505 ZM 158.269 35.365 C 157.909 35.365 157.619 35.252 157.399 35.025 C 157.172 34.805 157.059 34.525 157.059 34.185 L 157.059 27.045 C 157.059 25.912 156.845 24.985 156.419 24.265 C 155.985 23.545 155.412 23.008 154.699 22.655 C 153.979 22.302 153.152 22.125 152.219 22.125 C 151.359 22.125 150.575 22.292 149.869 22.625 C 149.155 22.958 148.595 23.422 148.189 24.015 C 147.775 24.602 147.569 25.278 147.569 26.045 L 145.969 26.045 C 145.989 24.865 146.292 23.815 146.879 22.895 C 147.472 21.968 148.262 21.235 149.249 20.695 C 150.235 20.155 151.335 19.885 152.549 19.885 C 153.875 19.885 155.059 20.158 156.099 20.705 C 157.132 21.258 157.949 22.065 158.549 23.125 C 159.142 24.192 159.439 25.498 159.439 27.045 L 159.439 34.185 C 159.439 34.525 159.329 34.805 159.109 35.025 C 158.882 35.252 158.602 35.365 158.269 35.365 Z M 146.389 35.365 C 146.035 35.365 145.749 35.258 145.529 35.045 C 145.302 34.832 145.189 34.545 145.189 34.185 L 145.189 21.255 C 145.189 20.882 145.302 20.588 145.529 20.375 C 145.749 20.155 146.035 20.045 146.389 20.045 C 146.749 20.045 147.035 20.155 147.249 20.375 C 147.462 20.588 147.569 20.882 147.569 21.255 L 147.569 34.185 C 147.569 34.545 147.462 34.832 147.249 35.045 C 147.035 35.258 146.749 35.365 146.389 35.365 ZM 171.668 35.505 C 170.194 35.505 168.871 35.165 167.698 34.485 C 166.518 33.805 165.588 32.875 164.908 31.695 C 164.228 30.522 163.888 29.188 163.888 27.695 C 163.888 26.222 164.214 24.895 164.868 23.715 C 165.521 22.542 166.408 21.615 167.528 20.935 C 168.648 20.248 169.918 19.905 171.338 19.905 C 172.531 19.905 173.618 20.162 174.598 20.675 C 175.578 21.188 176.384 21.865 177.018 22.705 L 177.018 14.705 C 177.018 14.332 177.131 14.035 177.358 13.815 C 177.578 13.602 177.864 13.495 178.218 13.495 C 178.578 13.495 178.868 13.602 179.088 13.815 C 179.314 14.035 179.428 14.332 179.428 14.705 L 179.428 27.775 C 179.388 29.235 179.028 30.548 178.348 31.715 C 177.668 32.882 176.748 33.805 175.588 34.485 C 174.434 35.165 173.128 35.505 171.668 35.505 Z M 171.668 33.345 C 172.694 33.345 173.618 33.098 174.438 32.605 C 175.264 32.112 175.911 31.442 176.378 30.595 C 176.844 29.742 177.078 28.775 177.078 27.695 C 177.078 26.628 176.844 25.665 176.378 24.805 C 175.911 23.952 175.264 23.282 174.438 22.795 C 173.618 22.308 172.694 22.065 171.668 22.065 C 170.641 22.065 169.718 22.308 168.898 22.795 C 168.078 23.282 167.424 23.952 166.938 24.805 C 166.451 25.665 166.208 26.628 166.208 27.695 C 166.208 28.775 166.451 29.742 166.938 30.595 C 167.424 31.442 168.078 32.112 168.898 32.605 C 169.718 33.098 170.641 33.345 171.668 33.345 Z" transform="matrix(1, 0, 0, 1, 0, 0)" style="fill: rgb(232, 30, 98); white-space: pre;"/>
  <path d="M 186.443 35.365 C 186.109 35.365 185.826 35.248 185.593 35.015 C 185.359 34.782 185.243 34.498 185.243 34.165 L 185.243 14.705 C 185.243 14.345 185.359 14.055 185.593 13.835 C 185.826 13.608 186.109 13.495 186.443 13.495 L 192.043 13.495 C 193.443 13.495 194.676 13.798 195.743 14.405 C 196.809 15.012 197.646 15.852 198.253 16.925 C 198.859 17.998 199.163 19.245 199.163 20.665 C 199.163 22.025 198.859 23.235 198.253 24.295 C 197.646 25.348 196.809 26.178 195.743 26.785 C 194.676 27.392 193.443 27.695 192.043 27.695 L 187.683 27.695 L 187.683 34.165 C 187.683 34.498 187.566 34.782 187.333 35.015 C 187.099 35.248 186.803 35.365 186.443 35.365 Z M 187.683 15.795 L 187.683 25.395 L 192.043 25.395 C 192.976 25.395 193.799 25.192 194.513 24.785 C 195.219 24.372 195.779 23.812 196.193 23.105 C 196.599 22.392 196.803 21.578 196.803 20.665 C 196.803 19.692 196.599 18.848 196.193 18.135 C 195.779 17.415 195.219 16.845 194.513 16.425 C 193.799 16.005 192.976 15.795 192.043 15.795 L 187.683 15.795 ZM 204.308 35.365 C 203.948 35.365 203.658 35.252 203.438 35.025 C 203.211 34.805 203.098 34.518 203.098 34.165 L 203.098 21.255 C 203.098 20.882 203.211 20.588 203.438 20.375 C 203.658 20.155 203.948 20.045 204.308 20.045 C 204.661 20.045 204.945 20.155 205.158 20.375 C 205.371 20.588 205.478 20.882 205.478 21.255 L 205.478 34.165 C 205.478 34.518 205.371 34.805 205.158 35.025 C 204.945 35.252 204.661 35.365 204.308 35.365 Z M 204.278 17.275 C 203.831 17.275 203.448 17.118 203.128 16.805 C 202.808 16.485 202.648 16.092 202.648 15.625 C 202.648 15.158 202.811 14.772 203.138 14.465 C 203.465 14.158 203.855 14.005 204.308 14.005 C 204.735 14.005 205.111 14.158 205.438 14.465 C 205.765 14.772 205.928 15.158 205.928 15.625 C 205.928 16.092 205.765 16.485 205.438 16.805 C 205.111 17.118 204.725 17.275 204.278 17.275 ZM 215.081 35.365 L 214.831 35.365 C 214.064 35.365 213.377 35.155 212.771 34.735 C 212.164 34.315 211.691 33.732 211.351 32.985 C 211.017 32.238 210.851 31.378 210.851 30.405 L 210.851 14.675 C 210.851 14.322 210.957 14.035 211.171 13.815 C 211.384 13.602 211.671 13.495 212.031 13.495 C 212.384 13.495 212.667 13.602 212.881 13.815 C 213.094 14.035 213.201 14.322 213.201 14.675 L 213.201 30.405 C 213.201 31.172 213.354 31.798 213.661 32.285 C 213.974 32.772 214.364 33.015 214.831 33.015 L 215.531 33.015 C 215.844 33.015 216.094 33.122 216.281 33.335 C 216.467 33.548 216.561 33.832 216.561 34.185 C 216.561 34.545 216.427 34.832 216.161 35.045 C 215.887 35.258 215.527 35.365 215.081 35.365 ZM 223.643 35.365 L 223.393 35.365 C 222.627 35.365 221.94 35.155 221.333 34.735 C 220.727 34.315 220.253 33.732 219.913 32.985 C 219.58 32.238 219.413 31.378 219.413 30.405 L 219.413 14.675 C 219.413 14.322 219.52 14.035 219.733 13.815 C 219.947 13.602 220.233 13.495 220.593 13.495 C 220.947 13.495 221.23 13.602 221.443 13.815 C 221.657 14.035 221.763 14.322 221.763 14.675 L 221.763 30.405 C 221.763 31.172 221.917 31.798 222.223 32.285 C 222.537 32.772 222.927 33.015 223.393 33.015 L 224.093 33.015 C 224.407 33.015 224.657 33.122 224.843 33.335 C 225.03 33.548 225.123 33.832 225.123 34.185 C 225.123 34.545 224.99 34.832 224.723 35.045 C 224.45 35.258 224.09 35.365 223.643 35.365 ZM 233.966 35.505 C 232.793 35.505 231.659 35.315 230.566 34.935 C 229.473 34.548 228.599 34.002 227.946 33.295 C 227.726 33.048 227.633 32.768 227.666 32.455 C 227.706 32.135 227.856 31.865 228.116 31.645 C 228.416 31.418 228.719 31.328 229.026 31.375 C 229.333 31.422 229.599 31.558 229.826 31.785 C 230.219 32.252 230.779 32.628 231.506 32.915 C 232.233 33.202 233.036 33.345 233.916 33.345 C 235.203 33.345 236.143 33.128 236.736 32.695 C 237.336 32.255 237.646 31.718 237.666 31.085 C 237.686 30.445 237.393 29.912 236.786 29.485 C 236.179 29.058 235.146 28.722 233.686 28.475 C 231.799 28.162 230.423 27.632 229.556 26.885 C 228.689 26.138 228.256 25.242 228.256 24.195 C 228.256 23.242 228.516 22.448 229.036 21.815 C 229.563 21.182 230.249 20.705 231.096 20.385 C 231.949 20.065 232.869 19.905 233.856 19.905 C 235.109 19.905 236.193 20.115 237.106 20.535 C 238.019 20.955 238.756 21.522 239.316 22.235 C 239.543 22.495 239.636 22.768 239.596 23.055 C 239.556 23.348 239.406 23.588 239.146 23.775 C 238.886 23.922 238.593 23.968 238.266 23.915 C 237.939 23.855 237.663 23.705 237.436 23.465 C 236.969 22.958 236.439 22.595 235.846 22.375 C 235.246 22.148 234.563 22.035 233.796 22.035 C 232.849 22.035 232.073 22.222 231.466 22.595 C 230.859 22.968 230.556 23.455 230.556 24.055 C 230.556 24.462 230.663 24.815 230.876 25.115 C 231.089 25.415 231.476 25.682 232.036 25.915 C 232.596 26.148 233.379 26.358 234.386 26.545 C 235.786 26.785 236.893 27.122 237.706 27.555 C 238.519 27.982 239.103 28.488 239.456 29.075 C 239.809 29.668 239.986 30.318 239.986 31.025 C 239.986 31.885 239.739 32.652 239.246 33.325 C 238.753 33.992 238.053 34.522 237.146 34.915 C 236.239 35.308 235.179 35.505 233.966 35.505 Z" transform="matrix(1, 0, 0, 1, 0, 0)" style="fill: rgb(255, 255, 255); white-space: pre; stroke: rgb(232, 30, 98);"/>
  <g transform="matrix(0.719339, 0.694659, -0.694659, 0.719339, 51.677857, -243.626301)">
    <path d="M 164.988 202.608 C 163.917 201.488 162.141 201.448 161.02 202.519 L 152.911 210.27 C 148.579 214.411 148.423 221.302 152.563 225.632 C 157.046 230.323 164.509 230.492 169.199 226.009 L 176.662 218.874 C 177.2 218.359 177.513 217.652 177.529 216.908 C 177.547 216.163 177.266 215.443 176.751 214.905 L 164.988 202.608 Z" style="fill: rgb(232, 30, 98);"/>
  </g>
  <path d="M 272.81 12.481 C 267.323 9.659 260.523 11.901 257.702 17.389 L 252.823 26.871 C 252.483 27.533 252.419 28.304 252.646 29.013 C 252.873 29.722 253.374 30.312 254.036 30.652 L 269.173 38.43 C 270.551 39.138 272.243 38.596 272.952 37.218 L 277.711 27.967 C 280.597 22.354 278.421 15.366 272.81 12.481 Z M 274.013 25.732 L 270.121 33.295 L 257.66 26.891 L 261.649 19.136 C 263.385 15.762 267.503 14.504 270.878 16.24 C 274.373 18.039 275.811 22.235 274.013 25.732 Z" style="fill: rgb(232, 30, 98);" transform="matrix(0.453989, 0.891007, -0.891007, 0.453989, 167.376925, -223.134006)"/>
  <circle cx="22.249" cy="21.025" r="2" style="fill: rgb(255, 255, 255);"/>
  <circle cx="268.021" cy="28.704" r="2" style="fill: rgb(232, 30, 98);"/>
  <circle cx="263.885" cy="22.865" r="2" style="fill: rgb(232, 30, 98);"/>
  <circle cx="16.891" cy="27.975" r="2" style="fill: rgb(255, 255, 255);"/>
  <circle cx="34.199" cy="21.865" r="2" style="fill: rgb(232, 30, 98);"/>
  <circle cx="38.742" cy="29.543" r="2" style="fill: rgb(232, 30, 98);"/>
  <circle cx="249.554" cy="31.814" r="2" style="fill: rgb(232, 30, 98);"/>
  <circle cx="250.689" cy="22.161" r="2" style="fill: rgb(232, 30, 98);"/>
  <circle cx="243.875" cy="26.136" r="2" style="fill: rgb(232, 30, 98);"/>
</svg>